<?xml version="1.0" standalone="no"?>
<!DOCTYPE svg PUBLIC "-//W3C//DTD SVG 20010904//EN"
 "http://www.w3.org/TR/2001/REC-SVG-20010904/DTD/svg10.dtd">
<svg version="1.0" xmlns="http://www.w3.org/2000/svg"
 width="500.000000pt" height="500.000000pt" viewBox="0 0 500.000000 500.000000"
 preserveAspectRatio="xMidYMid meet">

<g transform="translate(0.000000,500.000000) scale(0.100000,-0.100000)"
fill="#000000" stroke="none">
<path d="M2868 3998 c-22 -19 -65 -152 -269 -820 -133 -439 -245 -798 -248
-798 -3 0 -120 363 -259 807 -139 444 -258 811 -265 815 -21 14 -154 9 -169
-5 -7 -8 -116 -375 -243 -815 -126 -441 -232 -802 -235 -802 -3 0 -115 352
-249 783 -134 430 -250 797 -257 815 l-13 33 -88 -3 c-79 -3 -88 -5 -91 -23
-1 -11 128 -418 286 -903 219 -671 293 -887 308 -895 10 -7 59 -12 107 -12 78
0 91 3 105 21 10 11 113 356 231 767 118 411 217 747 220 747 3 0 112 -338
241 -751 155 -496 241 -756 253 -767 15 -13 38 -17 108 -17 75 0 91 3 107 20
12 12 124 343 281 825 144 442 269 812 278 822 15 17 43 18 353 18 308 0 344
-2 401 -20 116 -35 180 -111 199 -236 21 -136 -31 -281 -124 -342 -74 -50 -95
-55 -238 -60 l-138 -4 0 -74 0 -74 133 0 c201 0 300 -28 387 -106 113 -103
138 -310 53 -451 -62 -105 -109 -142 -234 -187 -58 -21 -79 -58 -59 -106 16
-38 48 -47 120 -32 134 28 256 119 327 243 62 109 76 169 71 303 -3 100 -6
118 -36 180 -59 125 -132 194 -253 240 l-61 23 45 26 c63 37 132 118 157 183
45 121 45 267 0 387 -26 70 -100 153 -168 190 -107 58 -157 64 -623 72 l-426
7 -25 -24z"/>
<path d="M3314 3660 c-11 -4 -33 -22 -47 -40 -21 -25 -27 -42 -27 -79 0 -146
202 -181 250 -43 13 37 13 47 0 84 -25 71 -105 107 -176 78z"/>
<path d="M2882 2718 c-18 -18 -15 -63 6 -86 9 -12 49 -37 89 -56 201 -100 502
-111 721 -26 129 50 179 95 165 149 -10 37 -47 36 -126 -2 -234 -116 -513
-114 -749 4 -63 32 -88 35 -106 17z"/>
</g>
</svg>
